<svg id="Layer_1" enable-background="new 0 0 100 100" height="512" viewBox="0 0 100 100" width="512" xmlns="http://www.w3.org/2000/svg"><path d="m87.3 55c-.5-1-1.6-1.7-2.7-1.7h-24.6-13.7c-1.7 0-3 1.3-3 3v17c0 5.5 4.5 10 10 10h-13.6c-1.7 0-3-1.3-3-3v-34c0-1.7 1.3-3 3-3h10.1c1.1 0 2.2.6 2.7 1.7.5 1 1.5 1.7 2.7 1.7h9.6c1.1 0 2.2-.6 2.7-1.7.5-1 1.5-1.7 2.7-1.7h3.5c1.7 0 3-1.3 3-3v-27.3c0-1.7-1.3-3-3-3h-60.7c-1.7 0-3 1.3-3 3v74c0 1.7 1.3 3 3 3h67c1.8 0 3.3-1.5 3.3-3.3 0-1.8-1.5-3.3-3.3-3.3h-13.3c5.5 0 10-4.5 10-10 0 0-.3-8.5-.3-9.3.1-2 1-4 3.1-4h.2c1.6 0 2.9 1.1 3.2 2.5.3 1.3.5 2.7.5 4.1v3.3c0 1.8 1.5 3.3 3.3 3.3 1.8 0 3.3-1.5 3.3-3.3v-3.3c0-4.2-1-8.2-2.7-11.7zm-60.3 28.3h-7.3c-1.7 0-3-1.3-3-3v-20.3c0-1.8 1.5-3.3 3.3-3.3 1.8 0 3.3-1.5 3.3-3.3 0-1.8-1.5-3.3-3.3-3.3-1.8 0-3.3-1.5-3.3-3.3 0-1.8 1.5-3.3 3.3-3.3 1.8 0 3.3-1.5 3.3-3.3 0-1.8-1.5-3.3-3.3-3.3-1.8 0-3.3-1.5-3.3-3.3v-13.9c0-1.7 1.3-3 3-3h47.3c1.7 0 3 1.3 3 3v14c0 1.7-1.3 3-3 3h-34c-1.7 0-3 1.3-3 3v40.7c0 1.6-1.3 2.9-3 2.9zm43-9.6c0 1.7-1.3 3-3 3h-14c-1.7 0-3-1.3-3-3v-10.7c0-1.7 1.3-3 3-3h14c1.7 0 3 1.3 3 3z"/><circle cx="28.3" cy="26.7" r="5"/><circle cx="45" cy="26.7" r="5"/></svg>