<svg id="Layer_1" enable-background="new 0 0 100 100" height="512" viewBox="0 0 100 100" width="512" xmlns="http://www.w3.org/2000/svg"><path d="m90 52.5c-.5-7.1-6.7-12.5-13.8-12.5h-3.1c-2 0-3.2-1.2-3.2-2.6v-1.4c0-1.4-1.2-2.6-2.6-2.6h-9.3c-2 0-3.3-2.2-2.3-3.9l7.3-12.2c.2-.4.4-.9.4-1.3 0-1.4-1.2-2.6-2.6-2.6h-41.5c-1.4 0-2.6 1.2-2.6 2.6 0 .5.1.9.4 1.3l7.2 12.1c1 1.7-.2 3.9-2.3 3.9h-9.3c-1.4 0-2.6 1.2-2.6 2.6 0 2.7.3 5.4.8 8l7.1 32.9c1.2 5.4 6.6 9.8 12.1 9.8h20c5.5 0 10.9-4.4 12.1-9.8l.4-1.8c.2-1.1 1.1-1.9 2.3-2 14.6-1.5 25.7-10.2 25.1-20.5zm-60.7-32.5h21.4c1.3 0 2.1 1.4 1.4 2.5l-5.6 9.5c-.5.8-1.3 1.3-2.3 1.3h-8.5c-.9 0-1.8-.5-2.3-1.3l-5.6-9.5c-.6-1.1.2-2.5 1.5-2.5zm-9.2 20h8.9c.9 0 1.8.5 2.3 1.3l6.3 10.7c.5.8 1.3 1.3 2.3 1.3h.3c.9 0 1.8-.5 2.3-1.3l6.4-10.8c.5-.8 1.3-1.3 2.3-1.3h8.9c1.7 0 2.9 1.5 2.6 3.2l-1.7 7.2c-.7 3.5-3.2 6.4-6.5 7.8-4.5 1.8-9.6 2-14.4 0s-10-1.8-14.4 0c-.6.3-1.3.5-1.9.7-1.4.4-2.9-.5-3.2-2l-2.9-13.6c-.6-1.7.7-3.2 2.4-3.2zm29.9 40h-22.5c-1.2 0-2.3-.9-2.6-2.1l-1.2-5.5c-.7-3.4 1.1-6.8 4.3-8.1h.1c3-1.2 6.3-1.2 9.3 0 6.3 2.6 13.2 2.6 19.5 0 .3-.1.7-.2 1.1-.3l-2.5 11.5c-.4 2.3-3.1 4.5-5.5 4.5zm15.1-17.3 3-13.9c.3-1.2 1.3-2.1 2.6-2.1h5.2c2.4 0 4.8 1 6.2 3 4.1 5.6-2.3 13.5-13.9 16.1-1.8.4-3.4-1.3-3.1-3.1z"/></svg>