<svg id="Layer_1" enable-background="new 0 0 100 100" height="512" viewBox="0 0 100 100" width="512" xmlns="http://www.w3.org/2000/svg"><path d="m83.3 16.7c-12.3-12.2-37.1-7.3-55.5 11.1s-23.3 43.2-11.1 55.5c12.3 12.2 37.1 7.3 55.5-11.1s23.3-43.2 11.1-55.5zm-66 42.5c1.8-9.2 7.2-18.7 15.2-26.6 9.9-9.9 22.2-15.9 32.9-15.9 2.9 0 6.8.5 10.2 2.5 1.5.9 2 2.8 1 4.2-7.3 11.5-17.8 20.1-29.9 25.1-9.5 3.9-18 10.1-24.8 18.2-1.8 2.2-5.4.8-5.3-2.1.1-1.7.3-3.5.7-5.4zm50.2 8.3c-9.9 9.9-22.2 15.9-32.9 15.9-3.1 0-7.2-.6-10.8-2.9-1.4-.9-1.7-2.8-.8-4.2 6.4-9.6 15.4-17.1 26.3-21.6 11.4-4.7 21.2-12.2 28.7-21.7 1.8-2.2 5.4-1 5.3 1.8-.1 10.1-5.7 22.6-15.8 32.7z"/></svg>