<svg id="Layer_1" enable-background="new 0 0 100 100" height="512" viewBox="0 0 100 100" width="512" xmlns="http://www.w3.org/2000/svg"><path d="m60.1 30h13.3c3.7 0 6.7-3 6.7-6.7v-10c0-1.8-1.5-3.3-3.3-3.3-1.8 0-3.3 1.5-3.3 3.3v9c0 .6-.4 1-1 1h-12.3c-.4 0-.8-.3-.9-.6-1.7-3.9-5.7-6.5-10.3-6-4.5.5-8.3 4.2-8.8 8.8s2.1 8.6 6 10.3c.4.2.6.5.6.9v2.3c0 .6-.4 1-1 1h-23.8c-1.1 0-2 .9-2 2v8c0 5.5 4.5 10 10 10h5.3c.7 0 1.2.7.9 1.3l-2.7 8c-.1.4-.5.7-.9.7h-2.9c-1.7 0-3 1.3-3 3v14c0 1.7 1.3 3 3 3h40.7c1.7 0 3-1.3 3-3v-14c0-1.7-1.3-3-3-3h-2.9c-.4 0-.8-.3-.9-.7l-2.7-8c-.3-.6.1-1.3.8-1.3h5.3c5.5 0 10-4.5 10-10v-8c0-1.1-.9-2-2-2h-23.7c-.6 0-1-.4-1-1v-2.3c0-.4.3-.8.6-.9 2.3-1 4.2-2.9 5.2-5.2.2-.3.5-.6 1-.6zm6.6 48.3v2c0 1.7-1.3 3-3 3h-27.4c-1.7 0-3-1.3-3-3v-2c0-.9.7-1.6 1.6-1.6h30.1c.9 0 1.7.7 1.7 1.6zm-25.9-9.6 2.7-8c.1-.4.5-.7.9-.7h11.2c.4 0 .8.3.9.7l2.7 8c.2.6-.3 1.3-.9 1.3h-16.6c-.6 0-1.1-.7-.9-1.3zm32.5-21v2.3c0 1.8-1.5 3.3-3.3 3.3h-40c-1.8 0-3.3-1.5-3.3-3.3v-2.3c0-.6.4-1 1-1h44.7c.5 0 .9.4.9 1zm-22.6-17.8c-2.4.5-4.4-1.6-3.9-4 .3-1.3 1.3-2.4 2.6-2.6 2.3-.4 4.3 1.6 3.9 3.9-.3 1.4-1.3 2.5-2.6 2.7z"/></svg>