<svg id="Layer_1" enable-background="new 0 0 100 100" height="512" viewBox="0 0 100 100" width="512" xmlns="http://www.w3.org/2000/svg"><path d="m30.1 90h33.5c7.3 0 11.5-5.7 9.4-12.7l-8.1-26c-.2-.6.3-1.3 1-1.3h4.3c.7 0 1.2-.7 1-1.3l-2.6-8.3 7.4 5.6c.5.4 1.2.2 1.5-.3l2.2-3.8c.3-.5.1-1.2-.5-1.4l-8.8-3.8 8.8-3.8c.5-.2.8-.9.5-1.4l-2.2-3.8c-.3-.5-1-.7-1.5-.3l-8 6 2.2-8.7c.2-.6-.3-1.2-1-1.2h-4.3c-.6 0-1.1-.6-1-1.2l2.4-9.6c.3-1.3-.6-2.5-1.9-2.5h-35c-1.3 0-2.3 1.2-1.9 2.5l2.4 9.6c.2.6-.3 1.2-1 1.2h-4.3c-.6 0-1.1.6-1 1.2l2.9 11.9-3.8 12.2c-.2.6.3 1.3 1 1.3h4.3c.7 0 1.2.7 1 1.3l-8.1 26c-2.3 6.9 1.9 12.6 9.2 12.6zm30.9-46.7h-28.2c-.7 0-1.2-.7-1-1.3l.7-2.2c.1-.4.5-.7 1-.7h26.9c.4 0 .8.3 1 .7l.6 2.2c.2.7-.3 1.3-1 1.3zm-2.7 9.5c.6 2-.9 4-3 3.9-2.8-.2-5.7.2-8.4 1.4-3.2 1.3-6.6 1.7-9.8 1.2-1.9-.3-3.1-2.1-2.5-3.9l1.7-5.5h21.2zm-.2-34.9-1.2 4.7c-.1.4-.5.8-1 .8h-18.1c-.5 0-.9-.3-1-.8l-1.2-4.7c-.2-.6.3-1.2 1-1.2h20.4c.7 0 1.2.6 1.1 1.2zm3.5 13.3-.5 2.2c-.1.4-.5.8-1 .8h-26.5c-.5 0-.9-.3-1-.8l-.5-2.2c-.2-.6.3-1.2 1-1.2h27.5c.7 0 1.2.6 1 1.2zm-34.4 48.1 3.6-11.6c.5-1.5 1.9-2.4 3.4-2 5.1 1.1 10.3.7 15.2-1.3 3-1.2 6.3-1.2 9.3 0 2.3.9 4 2.8 4.7 5.2l3.1 9.8c.4 1.3.4 2.4-.1 3.1-.5.6-1.5 1-2.9 1h-33.4c-1.4 0-2.4-.4-2.9-1-.4-.8-.4-1.9 0-3.2z"/></svg>