<svg id="Layer_1" enable-background="new 0 0 100 100" height="512" viewBox="0 0 100 100" width="512" xmlns="http://www.w3.org/2000/svg"><path d="m76.4 73.5c4.7-15 4.9-31.2 0-47-.4-1.3-.2-2.6.5-3.7 1.2-1.7 2-3.5 2.5-5.4 1-3.7-3.3-6.7-6.4-4.5-.8.6-1.7 1.3-2.4 2-1.1 1.1-2.7 1.5-4.2 1-10.5-3.2-21.9-3.3-32.9 0-1.5.4-3 .1-4.1-1-.8-.8-1.6-1.4-2.4-2-3.1-2.2-7.4.8-6.4 4.5.5 1.9 1.3 3.7 2.5 5.4.8 1.1.9 2.5.6 3.7-4.7 15-5 31.2 0 47 .4 1.3.2 2.7-.6 3.7-1.2 1.7-2 3.5-2.5 5.4-1 3.7 3.3 6.7 6.4 4.5.8-.6 1.6-1.3 2.4-2 1.1-1.1 2.7-1.5 4.2-1 10.5 3.2 21.9 3.3 32.9 0 1.5-.4 3-.1 4.1 1 .8.8 1.6 1.4 2.4 2 3.1 2.2 7.4-.8 6.4-4.5-.5-1.9-1.3-3.7-2.5-5.4-.7-1-.9-2.4-.5-3.7zm-7.5 1.3c-.4 1.2-1.4 2.1-2.6 2.5-5.3 1.8-10.7 2.7-16.3 2.7-5.6 0-11-.9-16.3-2.7-1.2-.4-2.2-1.3-2.6-2.5-5.9-16.1-5.9-33.4 0-49.5.4-1.2 1.4-2.1 2.6-2.5 5.3-1.9 10.7-2.8 16.3-2.8s11 .9 16.3 2.7c1.2.4 2.2 1.3 2.6 2.5 5.9 16.2 5.9 33.4 0 49.6z"/><path d="m63.3 36.7h-26.6c-1.8 0-3.3 1.5-3.3 3.3v20c0 1.8 1.5 3.3 3.3 3.3h26.7c1.8 0 3.3-1.5 3.3-3.3v-20c0-1.8-1.5-3.3-3.4-3.3zm-6.3 20h-14c-1.7 0-3-1.3-3-3v-7.3c0-1.7 1.3-3 3-3h14c1.7 0 3 1.3 3 3v7.3c0 1.6-1.3 3-3 3z"/></svg>