<svg id="Layer_1" enable-background="new 0 0 100 100" height="512" viewBox="0 0 100 100" width="512" xmlns="http://www.w3.org/2000/svg"><path d="m79.2 45.2c-.2-1-1.2-1.9-2.3-1.9h-9.6c-1 0-1.7-1-1.4-2l3.1-8.2c.6-1.5-.6-3.1-2.2-3.1h-5c-.6 0-1-.6-.8-1.1l5.7-15.1c.1-.3.1-.5.1-.8 0-.2 0-.4 0-.6 0-1.3-1-2.3-2.3-2.3h-35.3c-1.3 0-2.3 1-2.3 2.3v.6c0 .3 0 .5.1.8.7 1.9 3.7 10 5.7 15.1.2.6-.2 1.1-.8 1.1h-12.7c-1.3 0-2.3 1-2.3 2.3 0 .7.3 1.3.8 1.8l9.8 8.3c.6.5.9 1.4.8 2.2l-7.9 38.8c-.8 3.7 1.6 6.6 5.2 6.6h42.5c3.7 0 6-2.9 5.3-6.5l-6.3-30.7c-.3-1.4.8-2.8 2.3-2.8h2.7c.5 0 1.4.7 1.5 1.2l2.9 14.4c.3 1.3 1.5 2.1 2.7 1.8l2-.4c1.3-.3 2.1-1.5 1.8-2.7zm-21.3 4.8c1.1 0 2.1.8 2.3 1.9l1.9 9.3c-.2.1-.5.2-.7.3-4.5 1.8-9.6 2-14.4 0s-10-1.8-14.4 0c-.3.1-.6.2-.8.3l2-9.9c.2-1.1 1.2-1.9 2.3-1.9zm-19.3-33.3h16.6c1.6 0 2.7 1.6 2.2 3.1l-3.3 8.7c-.3.9-1.2 1.5-2.2 1.5h-10c-1 0-1.8-.6-2.2-1.5l-3.3-8.7c-.5-1.5.6-3.1 2.2-3.1zm-4.2 20h22.8c1.6 0 2.7 1.6 2.2 3.1l-.8 2c-.3.9-1.2 1.5-2.2 1.5h-16.7c-.6 0-1.1-.2-1.5-.6l-4.6-3.9c-.9-.7-.4-2.1.8-2.1zm-7.2 46.6 1.7-8.4c.7-3.3 2.9-6 6-7.3 3-1.2 6.3-1.2 9.3 0 5.3 2.2 11.2 2.5 16.6 1 1.3-.4 2.7.4 2.9 1.8l2.3 10.1c.3 1.4-.8 2.8-2.3 2.8z"/></svg>