<svg id="Layer_1" enable-background="new 0 0 100 100" height="512" viewBox="0 0 100 100" width="512" xmlns="http://www.w3.org/2000/svg"><path d="m77 46.7h-7.5c-1.5 0-2.8-1.1-3-2.6-1.1-9.8-8.2-17.7-17.5-20-1.4-.3-2.3-1.5-2.3-2.9v-1.5c0-1.7 1.3-3 3-3h.7c1.7 0 3-1.3 3-3v-.7c0-1.7-1.3-3-3-3h-14c-1.7 0-3 1.3-3 3v.7c0 1.7 1.3 3 3 3h.6c1.7 0 3 1.3 3 3v1.5c0 1.4-1 2.6-2.3 2.9-10.2 2.5-17.7 11.6-17.7 22.6v40.3c0 1.7 1.3 3 3 3h40.7c1.7 0 3-1.3 3-3v-10.7c0-1.7 1.3-3 3-3h7.3c1.7 0 3-1.3 3-3v-20.6c0-1.7-1.3-3-3-3zm-33.7-16.7c8 0 14.6 5.6 16.3 13.1.4 1.9-1 3.6-2.9 3.6h-26.7c-1.9 0-3.4-1.7-2.9-3.6 1.6-7.5 8.3-13.1 16.2-13.1zm-16.6 50.3v-24c0-1.7 1.3-3 3-3h7.3c1.7 0 3 1.3 3 3v7.3c0 1.7-1.3 3-3 3h-4c-1.7 0-3 1.3-3 3v.7c0 1.7 1.3 3 3 3h20.7c1.7 0 3-1.3 3-3v-.7c0-1.7-1.3-3-3-3h-4c-1.7 0-3-1.3-3-3v-7.3c0-1.7 1.3-3 3-3h7.3c1.7 0 3 1.3 3 3v24c0 1.7-1.3 3-3 3h-27.3c-1.7 0-3-1.3-3-3zm43.6-13.6h-.7c-1.7 0-3-1.3-3-3v-7.3c0-1.7 1.3-3 3-3h.7c1.7 0 3 1.3 3 3v7.3c0 1.6-1.3 3-3 3z"/></svg>