<svg id="Layer_1" enable-background="new 0 0 100 100" height="512" viewBox="0 0 100 100" width="512" xmlns="http://www.w3.org/2000/svg"><path d="m63.8 73.3c6.5 0 12.5-3.9 14.8-9.9 4.1-10.5-1.9-20.3-11.1-22.7-1.4-.4-2.4-1.8-2.2-3.2l1.2-10.5c0-.2 0-.3 0-.5-.1-5.4-4.6-9.8-10-9.8-1.3 0-2.5.2-3.6.7-1.2.5-2.6 0-3.4-1-3-3.9-7.7-6.4-13-6.4-9.1 0-16.5 7.3-16.7 16.4v.4l6.3 53.7c.2 1.4-.7 2.6-2 3.1-.6.2-1.1.5-1.6.9-2.3 1.7-1 5.4 1.8 5.4h37.5c2.9 0 4.1-3.7 1.8-5.4-.5-.4-1-.7-1.6-.9-1.3-.5-2.2-1.7-2-3.1l.5-4.1c.5-1.9 1.8-3.1 3.3-3.1zm6.8-9.2c-1.3 1.7-3.2 2.6-5.3 2.6-1.8 0-3.2-1.6-3-3.3.4-3.6 1.1-9.3 1.5-13 .2-2.1 2.6-3.3 4.4-2.3 5 2.7 7.3 9.5 2.4 16zm-33.9-47.4c4 0 7.4 2.3 9 5.7.9 2-.5 4.3-2.7 4.3-3.6 0-9.1 0-12.7 0-2.2 0-3.6-2.3-2.7-4.3 1.6-3.4 5.1-5.7 9.1-5.7zm-5.8 16.6h24.9c1.8 0 3.2 1.6 3 3.4l-5.2 44c-.2 1.5-1.5 2.6-3 2.6h-14.6c-1.5 0-2.8-1.1-3-2.6l-5.2-44c-.1-1.8 1.3-3.4 3.1-3.4z"/></svg>