<svg id="Layer_1" enable-background="new 0 0 100 100" height="512" viewBox="0 0 100 100" width="512" xmlns="http://www.w3.org/2000/svg"><path d="m63.3 66.3v3.7h-3.3c-1.8 0-3.3 1.5-3.3 3.3 0 1.8 1.5 3.3 3.3 3.3h3.3v6.7c0 3.7 3 6.7 6.7 6.7h13.3c3.7 0 6.7-3 6.7-6.7v-17c0-1.7-1.3-3-3-3h-20.7c-1.6 0-3 1.4-3 3zm17 17h-7.3c-1.7 0-3-1.3-3-3v-7.3c0-1.7 1.3-3 3-3h7.3c1.7 0 3 1.3 3 3v7.3c0 1.7-1.3 3-3 3z"/><path d="m67.9 30h-11.2l-15.8-10.5c-.6-.4-.9-1-.9-1.7v-4.4c0-1.8-1.5-3.3-3.3-3.3-1.8 0-3.3 1.5-3.3 3.3v4.4c0 .7-.3 1.3-.9 1.7l-15.8 10.5h-3.3c-1.8 0-3.3 1.5-3.3 3.3 0 1.8 1.5 3.3 3.3 3.3h2.8c1 0 1.9.7 2.1 1.7l5.1 28v.7l-2.9 20.6c-.2 1.3.8 2.4 2.1 2.4h28.5c1.3 0 2.2-1.1 2.1-2.4l-3.2-20.6c0-.2 0-.4 0-.7l4.8-26.1c.4-2 2.1-3.5 4.2-3.5 2.4 0 4.3 1.9 4.3 4.3v12.4c0 1.8 1.5 3.3 3.3 3.3 1.8 0 3.3-1.5 3.3-3.3v-21.3c.1-1.2-.8-2.1-2-2.1zm-30.6-4.9 4.9 3.3c.7.5.4 1.7-.5 1.7h-10c-.9 0-1.2-1.2-.5-1.7l4.9-3.3c.3-.3.8-.3 1.2 0zm-4 13.7v22.5c0 1.2-.9 2.1-2.1 2.1-1 0-1.9-.7-2.1-1.7l-4.1-22.5c-.2-1.3.8-2.5 2.1-2.5h4.1c1.2 0 2.1.9 2.1 2.1zm-5.3 42.2 1.3-9.2c.1-1 1-1.8 2.1-1.8h10.5c1 0 1.9.8 2.1 1.8l1.3 9.2c.2 1.3-.8 2.4-2.1 2.4h-13.1c-1.3-.1-2.3-1.2-2.1-2.4zm14.1-17.7c-1.2 0-2.1-.9-2.1-2.1v-22.4c0-1.2.9-2.1 2.1-2.1h4.1c1.3 0 2.3 1.2 2.1 2.5l-4.1 22.5c-.2.9-1.1 1.6-2.1 1.6z"/></svg>