<svg id="Layer_1" enable-background="new 0 0 100 100" height="512" viewBox="0 0 100 100" width="512" xmlns="http://www.w3.org/2000/svg"><path d="m34.2 37.6c-.5-.6-.8-1.4-.7-2.2l1.5-20.4c0-2.8-2.2-5-5-5s-5 2.2-5 5l1.6 20.4c.1.8-.2 1.6-.7 2.2l-10.2 11.6c-.5.5-.7 1.2-.7 2v5.2c0 1.1.9 2 2 2h26c1.1 0 2-.9 2-2v-5.2c0-.7-.3-1.4-.7-2zm-10.2 12.2 5.1-5.9c.4-.5 1.2-.5 1.7 0l5.1 5.9c.6.7.1 1.9-.8 1.9h-10.2c-1 0-1.5-1.2-.9-1.9z"/><path d="m62.7 65.9-1.3 2c-.2.3-.5.4-.8.4h-8.6c-1.1 0-2-.9-2-2 0-1.7-1.3-3-3-3h-34c-1.7 0-3 1.3-3 3v8.7c0 5.5 4.5 10 10 10l.7 4.2c.1.5.5.8 1 .8h3.3c.5 0 .9-.4 1-.8l.7-4.2h6.7l.7 4.2c.1.5.5.8 1 .8h3.3c.5 0 .9-.4 1-.8l.6-4.2c5 0 9.1-3.6 9.9-8.4.2-1 1-1.6 2-1.6h36.2c1.1 0 2-.9 2-2v-6c0-1.1-.9-2-2-2h-23.7c-.7 0-1.3.3-1.7.9zm-19.4 9.1c0 1.8-1.5 3.3-3.3 3.3h-20c-1.8 0-3.3-1.5-3.3-3.3v-4c0-.6.4-1 1-1h24.7c.6 0 1 .4 1 1v4z"/><path d="m73.3 16.7c0 3.7-1.9 6.7-4.2 6.7s-4.2-3-4.2-6.7 1.9-6.7 4.2-6.7c2.4 0 4.2 3 4.2 6.7z"/><path d="m70 30c3.7 0 6.7 1.9 6.7 4.2s-3 4.2-6.7 4.2-6.7-1.9-6.7-4.2 3-4.2 6.7-4.2z"/><path d="m81.7 41.7c0-3.7 1.9-6.7 4.2-6.7s4.2 3 4.2 6.7-1.9 6.7-4.2 6.7c-2.4-.1-4.2-3.1-4.2-6.7z"/><path d="m87.4 19.3c2.6 2.6 3.4 6 1.8 7.7-1.6 1.6-5.1.8-7.7-1.8s-3.4-6-1.8-7.7c1.7-1.6 5.1-.8 7.7 1.8z"/><path d="m63.5 43.2c2.6 2.6 3.4 6 1.8 7.7-1.6 1.6-5.1.8-7.7-1.8s-3.4-6-1.8-7.7c1.7-1.6 5.1-.8 7.7 1.8z"/><path d="m52.6 22.6c2.6-2.6 6-3.4 7.7-1.8 1.6 1.6.8 5.1-1.8 7.7s-6 3.4-7.7 1.8c-1.6-1.7-.8-5.1 1.8-7.7z"/></svg>