<svg id="Layer_1" enable-background="new 0 0 100 100" height="512" viewBox="0 0 100 100" width="512" xmlns="http://www.w3.org/2000/svg"><path d="m28 18.5c-.9.9-1.1 2.2-.6 3.4l.4.7c.6 1.2.3 2.7-.8 3.6-1.6 1.2-3.8.6-4.5-1.3l-4.7-12.9c-.4-1.1-1.5-1.9-2.7-1.9h-.9c-2 0-3.4 2-2.7 3.9l6.2 17c.4 1.2 0 2.5-.9 3.3l-5.6 4.3c-.7.5-1.1 1.4-1.1 2.3v3.1c0 1.6 1.8 2.5 3.1 1.5l18.4-14.5c1.2-.9 2.8-.8 3.8.2l8.1 8.1c1 1 1.1 2.7.2 3.8l-21.1 27.3c-1.1 1.4-3.1 1.5-4.3.3l-4.4-4.4c-1.4-1.4-3.9-.4-3.9 1.6v2.7c0 .8.3 1.5.8 2l5.5 5.5c2.6 2.6 6.6 2.4 8.9-.5l23.3-29.9c.8-1.1 2.3-1.4 3.6-.8l.7.4c1.1.6 2.5.3 3.3-.5 1.1-1.1 1.1-3 0-4.1l-24-24.2c-1.1-1.2-3-1.2-4.1 0z"/><path d="m46.1 61.3c-3.8 9.6 3.1 18.7 12.2 18.7h1c.9 3.2 2 6.2 3.4 8.9.3.7 1 1.1 1.8 1.1h17.6c.8 0 1.5-.4 1.8-1.1 3.8-7.6 5.8-17.2 6.1-26.9 0-1.1-.9-2-2-2h-40c-.9 0-1.6.5-1.9 1.3zm19.8 5.4h14.9c1.2 0 2.1 1.1 2 2.3-.6 4.7-1.7 9.2-3.2 13.1-.3.8-1 1.3-1.9 1.3-2.2 0-6.6 0-8.8 0-.8 0-1.6-.5-1.9-1.3-1.5-3.9-2.6-8.4-3.2-13.1-.1-1.3.9-2.3 2.1-2.3zm-15.9.4c0-1.2.9-2.1 2-2.1h3c1 0 1.9.8 2 1.8.2 2.5.6 4.9 1 7.3.1.4-.3.8-.7.8-4-.5-7.1-3.8-7.3-7.8z"/><path d="m66.3 52.7c-1.6-7.6-4.1-14.4-7.1-19.8-.3-.6.4-1.2.9-.7 5.2 5 9.1 11.7 11 19.4.3 1.4-.6 2.8-2 3-1.3.2-2.5-.6-2.8-1.9z"/><path d="m79.5 51.2c-2.1-5.2-4.6-9.7-7.3-13.2-.4-.5.2-1.2.8-.9 4.7 2.8 8.5 6.9 11 12.1.6 1.3 0 2.9-1.3 3.4h-.1c-1.3.4-2.6-.2-3.1-1.4z"/><path d="m66.1 30.1c-6.5-4.3-13.1-7.3-19-9-.7-.1-.6-1.1.1-1.1 7.2-.1 14.7 1.8 21.5 5.9 1.2.7 1.6 2.4.7 3.5-.7 1.2-2.2 1.5-3.3.7z"/></svg>